<?xml version="1.0" encoding="UTF-8" standalone="no"?>
<!-- Created with matplotlib (https://matplotlib.org/) -->

<svg
   xmlns:dc="http://purl.org/dc/elements/1.1/"
   xmlns:cc="http://creativecommons.org/ns#"
   xmlns:rdf="http://www.w3.org/1999/02/22-rdf-syntax-ns#"
   xmlns:svg="http://www.w3.org/2000/svg"
   xmlns="http://www.w3.org/2000/svg"
   xmlns:xlink="http://www.w3.org/1999/xlink"
   xmlns:sodipodi="http://sodipodi.sourceforge.net/DTD/sodipodi-0.dtd"
   xmlns:inkscape="http://www.inkscape.org/namespaces/inkscape"
   height="145.3094pt"
   version="1.1"
   viewBox="0 0 285.97476 145.3094"
   width="285.97476pt"
   id="svg49"
   sodipodi:docname="logo-emg3d-cut.svg"
   inkscape:version="0.92.4 (33fec40, 2019-01-16)">
  <metadata
     id="metadata53">
    <rdf:RDF>
      <cc:Work
         rdf:about="">
        <dc:format>image/svg+xml</dc:format>
        <dc:type
           rdf:resource="http://purl.org/dc/dcmitype/StillImage" />
        <dc:title></dc:title>
      </cc:Work>
    </rdf:RDF>
  </metadata>
  <sodipodi:namedview
     pagecolor="#ffffff"
     bordercolor="#666666"
     borderopacity="1"
     objecttolerance="10"
     gridtolerance="10"
     guidetolerance="10"
     inkscape:pageopacity="0"
     inkscape:pageshadow="2"
     inkscape:window-width="1869"
     inkscape:window-height="1025"
     id="namedview51"
     showgrid="false"
     scale-x="0.55"
     fit-margin-top="5"
     fit-margin-left="5"
     fit-margin-right="5"
     fit-margin-bottom="5"
     inkscape:zoom="0.75208333"
     inkscape:cx="188.87548"
     inkscape:cy="-224.96103"
     inkscape:window-x="51"
     inkscape:window-y="27"
     inkscape:window-maximized="1"
     inkscape:current-layer="svg49" />
  <defs
     id="defs4"
     style="stroke-linecap:butt;stroke-linejoin:round">
    <style
       type="text/css"
       id="style2">
*{stroke-linecap:butt;stroke-linejoin:round;}
  </style>
  </defs>
  <g
     style="stroke-linecap:butt;stroke-linejoin:round"
     id="patch_1"
     transform="translate(-38.343394,-33.305)">
    <path
       inkscape:connector-curvature="0"
       id="path6"
       style="fill:none;stroke-linecap:butt;stroke-linejoin:round"
       d="M 0,216 H 360 V 0 H 0 Z" />
  </g>
  <g
     style="stroke-linecap:butt;stroke-linejoin:round"
     id="axes_1"
     transform="translate(-38.343394,-33.305)">
    <g
       style="stroke-linecap:butt;stroke-linejoin:round"
       id="line2d_1">
      <path
         inkscape:connector-curvature="0"
         id="path9"
         style="fill:none;stroke:#777777;stroke-width:10;stroke-linecap:square;stroke-linejoin:round;stroke-opacity:0.3"
         d="m 57.681818,46.305 21.136364,40.77 21.136363,40.77 21.136365,40.77 21.13636,-40.77 21.13637,40.77 21.13636,-40.77 21.13636,-40.77 21.13637,40.77 21.13636,40.77 21.13636,-40.77 21.13637,-40.77 21.13636,-40.77"
         clip-path="url(#pfca759cf8c)" />
    </g>
    <g
       style="stroke-linecap:butt;stroke-linejoin:round"
       id="line2d_2">
      <defs
         id="defs13">
        <path
           inkscape:connector-curvature="0"
           style="stroke:#e24a33;stroke-linecap:butt;stroke-linejoin:round"
           id="m0ef15d9fd9"
           d="M 0,7.5 C 1.989023,7.5 3.896849,6.709753 5.303301,5.303301 6.709753,3.896849 7.5,1.989023 7.5,0 7.5,-1.989023 6.709753,-3.896849 5.303301,-5.303301 3.896849,-6.709753 1.989023,-7.5 0,-7.5 c -1.989023,0 -3.896849,0.790247 -5.303301,2.196699 C -6.709753,-3.896849 -7.5,-1.989023 -7.5,0 c 0,1.989023 0.790247,3.896849 2.196699,5.303301 C -3.896849,6.709753 -1.989023,7.5 0,7.5 Z" />
      </defs>
      <g
         style="stroke-linecap:butt;stroke-linejoin:round"
         id="g19"
         clip-path="url(#pfca759cf8c)">
        <use
           height="100%"
           width="100%"
           id="use15"
           y="46.305"
           xlink:href="#m0ef15d9fd9"
           x="57.681816"
           style="fill:#e24a33;stroke:#e24a33;stroke-linecap:butt;stroke-linejoin:round" />
        <use
           height="100%"
           width="100%"
           id="use17"
           y="46.305"
           xlink:href="#m0ef15d9fd9"
           x="311.31818"
           style="fill:#e24a33;stroke:#e24a33;stroke-linecap:butt;stroke-linejoin:round" />
      </g>
    </g>
    <g
       style="stroke-linecap:butt;stroke-linejoin:round"
       id="text_1">
      <!-- emg3d -->
      <defs
         id="defs27">
        <path
           style="stroke-linecap:butt;stroke-linejoin:round"
           inkscape:connector-curvature="0"
           id="Ubuntu-Medium-101"
           d="m 4.796875,25.90625 q 0,6.890625 2.046875,12.09375 2.0625,5.203125 5.453125,8.640625 3.40625,3.453125 7.796875,5.203125 4.40625,1.75 9,1.75 10.8125,0 16.859375,-6.703125 Q 52,40.203125 52,26.90625 q 0,-1 -0.04687,-2.25 -0.04687,-1.25 -0.15625,-2.25 h -34.5 q 0.5,-6.3125 4.453125,-9.765625 3.953125,-3.4375 11.453125,-3.4375 4.390625,0 8.046875,0.796875 3.65625,0.796875 5.75,1.703125 l 1.59375,-9.90625 q -1,-0.5 -2.75,-1.046875 -1.75,-0.546875 -4,-1 Q 39.59375,-0.703125 37,-1 34.40625,-1.296875 31.703125,-1.296875 24.796875,-1.296875 19.6875,0.75 14.59375,2.796875 11.296875,6.4375 8,10.09375 6.390625,15.046875 4.796875,20 4.796875,25.90625 Z m 35.109375,5.390625 q 0,2.5 -0.703125,4.75 -0.703125,2.25 -2.0625,3.890625 -1.34375,1.65625 -3.296875,2.609375 Q 31.90625,43.5 29.203125,43.5 26.40625,43.5 24.296875,42.453125 22.203125,41.40625 20.75,39.703125 19.296875,38 18.5,35.796875 q -0.796875,-2.203125 -1.09375,-4.5 z" />
        <path
           style="stroke-linecap:butt;stroke-linejoin:round"
           inkscape:connector-curvature="0"
           id="Ubuntu-Medium-109"
           d="m 37.5,27.5 q 0,8.203125 -2.046875,11.84375 Q 33.40625,43 27.796875,43 q -2,0 -4.40625,-0.296875 Q 21,42.40625 19.796875,42.203125 V 0 H 7.703125 v 50.59375 q 3.5,1 9.140625,1.90625 5.65625,0.90625 11.953125,0.90625 5.40625,0 8.84375,-1.40625 Q 41.09375,50.59375 43.40625,48.296875 44.5,49.09375 46.203125,50 47.90625,50.90625 50,51.65625 q 2.09375,0.75 4.4375,1.25 2.359375,0.5 4.765625,0.5 6.09375,0 10.046875,-1.75 3.953125,-1.75 6.203125,-4.90625 2.25,-3.15625 3.09375,-7.609375 0.859375,-4.4375 0.859375,-9.734375 V 0 H 67.296875 v 27.5 q 0,8.203125 -2,11.84375 -2,3.65625 -7.703125,3.65625 -2.890625,0 -5.5,-0.953125 Q 49.5,41.09375 48.203125,40.203125 49,37.703125 49.296875,34.890625 49.59375,32.09375 49.59375,28.90625 V 0 H 37.5 Z" />
        <path
           style="stroke-linecap:butt;stroke-linejoin:round"
           inkscape:connector-curvature="0"
           id="Ubuntu-Medium-103"
           d="m 17.203125,27.5 q 0,-7.703125 3.34375,-11.25 3.359375,-3.546875 8.65625,-3.546875 2.890625,0 5.4375,0.796875 2.5625,0.796875 4.15625,1.90625 V 42.5 Q 37.5,42.796875 35.59375,43.046875 q -1.890625,0.25 -4.796875,0.25 -6.59375,0 -10.09375,-4.359375 -3.5,-4.34375 -3.5,-11.4375 z M 50.90625,5.296875 q 0,-12.5 -6.359375,-18.296875 -6.34375,-5.796875 -19.453125,-5.796875 -4.796875,0 -9.34375,0.796875 -4.546875,0.796875 -8.25,2.09375 l 2.203125,10.3125 Q 12.796875,-6.90625 16.75,-7.703125 20.703125,-8.5 25.296875,-8.5 q 7.296875,0 10.390625,3 3.109375,3 3.109375,8.90625 v 2 Q 37,4.5 34.046875,3.59375 q -2.953125,-0.890625 -6.75,-0.890625 -5,0 -9.15625,1.59375 Q 14,5.90625 11.046875,9 8.09375,12.09375 6.4375,16.75 4.796875,21.40625 4.796875,27.5 q 0,5.703125 1.75,10.5 1.75,4.796875 5.09375,8.1875 Q 15,49.59375 19.796875,51.5 q 4.796875,1.90625 10.90625,1.90625 5.890625,0 11.1875,-0.90625 5.3125,-0.90625 9.015625,-1.90625 z" />
        <path
           style="stroke-linecap:butt;stroke-linejoin:round"
           inkscape:connector-curvature="0"
           id="Ubuntu-Medium-51"
           d="m 23.59375,-1.5 q -2.6875,0 -5.546875,0.359375 -2.84375,0.34375 -5.40625,0.890625 Q 10.09375,0.296875 8,0.9375 5.90625,1.59375 4.796875,2.203125 L 7.203125,12.5 q 2.09375,-1 6.09375,-2.25 4,-1.25 9.90625,-1.25 7.890625,0 11.390625,3.046875 3.5,3.046875 3.5,8.15625 0,3.296875 -1.34375,5.5 -1.34375,2.203125 -3.703125,3.546875 -2.34375,1.34375 -5.40625,1.890625 -3.046875,0.5625 -6.4375,0.5625 H 17.09375 V 41.5 h 5 q 2.3125,0 4.65625,0.453125 2.34375,0.453125 4.25,1.59375 1.90625,1.15625 3.09375,3.046875 1.203125,1.90625 1.203125,4.90625 0,2.40625 -0.90625,4.09375 Q 33.5,57.296875 32.046875,58.390625 30.59375,59.5 28.6875,60 q -1.890625,0.5 -3.984375,0.5 -4.5,0 -8,-1.359375 -3.5,-1.34375 -6.203125,-3.046875 l -4.40625,9 Q 7.5,66 9.5,67 q 2,1 4.453125,1.890625 2.453125,0.90625 5.25,1.453125 2.796875,0.5625 5.890625,0.5625 5.8125,0 10,-1.40625 4.203125,-1.40625 6.953125,-3.953125 2.75,-2.546875 4.09375,-6 Q 47.5,56.09375 47.5,52 47.5,47.203125 44.84375,43.390625 42.203125,39.59375 38,37.59375 43.40625,35.703125 46.953125,31.296875 50.5,26.90625 50.5,20 50.5,15.40625 48.890625,11.453125 47.296875,7.5 44,4.640625 40.703125,1.796875 35.640625,0.140625 30.59375,-1.5 23.59375,-1.5 Z" />
        <path
           style="stroke-linecap:butt;stroke-linejoin:round"
           inkscape:connector-curvature="0"
           id="Ubuntu-Medium-100"
           d="m 17.203125,26.296875 q 0,-8 3.796875,-12.546875 3.796875,-4.546875 10.5,-4.546875 2.90625,0 4.953125,0.25 Q 38.5,9.703125 39.796875,10 v 30 q -1.59375,1.09375 -4.25,2.046875 Q 32.90625,43 29.90625,43 23.296875,43 20.25,38.5 17.203125,34 17.203125,26.296875 Z M 51.90625,1.59375 Q 48.296875,0.5 42.84375,-0.390625 q -5.4375,-0.90625 -11.4375,-0.90625 -6.203125,0 -11.109375,1.890625 Q 15.40625,2.5 11.953125,6.046875 8.5,9.59375 6.640625,14.640625 4.796875,19.703125 4.796875,26 q 0,6.203125 1.546875,11.25 1.5625,5.046875 4.5625,8.640625 3,3.609375 7.296875,5.5625 4.296875,1.953125 9.890625,1.953125 3.8125,0 6.703125,-0.90625 2.90625,-0.90625 5,-2 v 25.09375 l 12.109375,2 z" />
      </defs>
      <g
         id="g39"
         transform="matrix(0.9,0,0,-0.9,39.026207,127.845)"
         style="fill:#348abd;stroke-linecap:butt;stroke-linejoin:round">
        <use
           height="100%"
           width="100%"
           y="0"
           x="0"
           style="stroke-linecap:butt;stroke-linejoin:round"
           id="use29"
           xlink:href="#Ubuntu-Medium-101" />
        <use
           height="100%"
           width="100%"
           y="0"
           style="stroke-linecap:butt;stroke-linejoin:round"
           id="use31"
           xlink:href="#Ubuntu-Medium-109"
           x="57.099991" />
        <use
           height="100%"
           width="100%"
           y="0"
           style="stroke-linecap:butt;stroke-linejoin:round"
           id="use33"
           xlink:href="#Ubuntu-Medium-103"
           x="143.59998" />
        <use
           height="100%"
           width="100%"
           y="0"
           style="stroke-linecap:butt;stroke-linejoin:round"
           id="use35"
           xlink:href="#Ubuntu-Medium-51"
           x="202.19997" />
        <use
           height="100%"
           width="100%"
           y="0"
           style="stroke-linecap:butt;stroke-linejoin:round"
           id="use37"
           xlink:href="#Ubuntu-Medium-100"
           x="258.99994" />
      </g>
    </g>
  </g>
  <defs
     id="defs47">
    <clipPath
       id="pfca759cf8c"
       style="stroke-linecap:butt;stroke-linejoin:round">
      <rect
         height="163.08"
         width="279"
         x="45"
         y="25.92"
         id="rect44"
         style="stroke-linecap:butt;stroke-linejoin:round" />
    </clipPath>
  </defs>
</svg>
