<?xml version="1.0" encoding="utf-8" standalone="no"?>
<!DOCTYPE svg PUBLIC "-//W3C//DTD SVG 1.1//EN"
  "http://www.w3.org/Graphics/SVG/1.1/DTD/svg11.dtd">
<!-- Created with matplotlib (https://matplotlib.org/) -->
<svg height="216pt" version="1.1" viewBox="0 0 360 216" width="360pt" xmlns="http://www.w3.org/2000/svg" xmlns:xlink="http://www.w3.org/1999/xlink">
 <defs>
  <style type="text/css">
*{stroke-linecap:butt;stroke-linejoin:round;}
  </style>
 </defs>
 <g id="figure_1">
  <g id="patch_1">
   <path d="M 0 216 
L 360 216 
L 360 0 
L 0 0 
z
" style="fill:#ffffff;"/>
  </g>
  <g id="axes_1">
   <g id="line2d_1">
    <path clip-path="url(#p757e7e21e5)" d="M 57.681818 46.305 
L 78.818182 87.075 
L 99.954545 127.845 
L 121.090909 168.615 
L 142.227273 127.845 
L 163.363636 168.615 
L 184.5 127.845 
L 205.636364 87.075 
L 226.772727 127.845 
L 247.909091 168.615 
L 269.045455 127.845 
L 290.181818 87.075 
L 311.318182 46.305 
" style="fill:none;stroke:#777777;stroke-linecap:square;stroke-opacity:0.3;stroke-width:10;"/>
   </g>
   <g id="line2d_2">
    <defs>
     <path d="M 0 7.5 
C 1.989023 7.5 3.896849 6.709753 5.303301 5.303301 
C 6.709753 3.896849 7.5 1.989023 7.5 0 
C 7.5 -1.989023 6.709753 -3.896849 5.303301 -5.303301 
C 3.896849 -6.709753 1.989023 -7.5 0 -7.5 
C -1.989023 -7.5 -3.896849 -6.709753 -5.303301 -5.303301 
C -6.709753 -3.896849 -7.5 -1.989023 -7.5 0 
C -7.5 1.989023 -6.709753 3.896849 -5.303301 5.303301 
C -3.896849 6.709753 -1.989023 7.5 0 7.5 
z
" id="m8041120c44" style="stroke:#e24a33;"/>
    </defs>
    <g clip-path="url(#p757e7e21e5)">
     <use style="fill:#e24a33;stroke:#e24a33;" x="57.681818" xlink:href="#m8041120c44" y="46.305"/>
     <use style="fill:#e24a33;stroke:#e24a33;" x="311.318182" xlink:href="#m8041120c44" y="46.305"/>
    </g>
   </g>
   <g id="text_1">
    <!-- emg3d -->
    <defs>
     <path d="M 4.796875 25.90625 
Q 4.796875 32.796875 6.84375 38 
Q 8.90625 43.203125 12.296875 46.640625 
Q 15.703125 50.09375 20.09375 51.84375 
Q 24.5 53.59375 29.09375 53.59375 
Q 39.90625 53.59375 45.953125 46.890625 
Q 52 40.203125 52 26.90625 
Q 52 25.90625 51.953125 24.65625 
Q 51.90625 23.40625 51.796875 22.40625 
L 17.296875 22.40625 
Q 17.796875 16.09375 21.75 12.640625 
Q 25.703125 9.203125 33.203125 9.203125 
Q 37.59375 9.203125 41.25 10 
Q 44.90625 10.796875 47 11.703125 
L 48.59375 1.796875 
Q 47.59375 1.296875 45.84375 0.75 
Q 44.09375 0.203125 41.84375 -0.25 
Q 39.59375 -0.703125 37 -1 
Q 34.40625 -1.296875 31.703125 -1.296875 
Q 24.796875 -1.296875 19.6875 0.75 
Q 14.59375 2.796875 11.296875 6.4375 
Q 8 10.09375 6.390625 15.046875 
Q 4.796875 20 4.796875 25.90625 
z
M 39.90625 31.296875 
Q 39.90625 33.796875 39.203125 36.046875 
Q 38.5 38.296875 37.140625 39.9375 
Q 35.796875 41.59375 33.84375 42.546875 
Q 31.90625 43.5 29.203125 43.5 
Q 26.40625 43.5 24.296875 42.453125 
Q 22.203125 41.40625 20.75 39.703125 
Q 19.296875 38 18.5 35.796875 
Q 17.703125 33.59375 17.40625 31.296875 
z
" id="Ubuntu-Medium-101"/>
     <path d="M 37.5 27.5 
Q 37.5 35.703125 35.453125 39.34375 
Q 33.40625 43 27.796875 43 
Q 25.796875 43 23.390625 42.703125 
Q 21 42.40625 19.796875 42.203125 
L 19.796875 0 
L 7.703125 0 
L 7.703125 50.59375 
Q 11.203125 51.59375 16.84375 52.5 
Q 22.5 53.40625 28.796875 53.40625 
Q 34.203125 53.40625 37.640625 52 
Q 41.09375 50.59375 43.40625 48.296875 
Q 44.5 49.09375 46.203125 50 
Q 47.90625 50.90625 50 51.65625 
Q 52.09375 52.40625 54.4375 52.90625 
Q 56.796875 53.40625 59.203125 53.40625 
Q 65.296875 53.40625 69.25 51.65625 
Q 73.203125 49.90625 75.453125 46.75 
Q 77.703125 43.59375 78.546875 39.140625 
Q 79.40625 34.703125 79.40625 29.40625 
L 79.40625 0 
L 67.296875 0 
L 67.296875 27.5 
Q 67.296875 35.703125 65.296875 39.34375 
Q 63.296875 43 57.59375 43 
Q 54.703125 43 52.09375 42.046875 
Q 49.5 41.09375 48.203125 40.203125 
Q 49 37.703125 49.296875 34.890625 
Q 49.59375 32.09375 49.59375 28.90625 
L 49.59375 0 
L 37.5 0 
z
" id="Ubuntu-Medium-109"/>
     <path d="M 17.203125 27.5 
Q 17.203125 19.796875 20.546875 16.25 
Q 23.90625 12.703125 29.203125 12.703125 
Q 32.09375 12.703125 34.640625 13.5 
Q 37.203125 14.296875 38.796875 15.40625 
L 38.796875 42.5 
Q 37.5 42.796875 35.59375 43.046875 
Q 33.703125 43.296875 30.796875 43.296875 
Q 24.203125 43.296875 20.703125 38.9375 
Q 17.203125 34.59375 17.203125 27.5 
z
M 50.90625 5.296875 
Q 50.90625 -7.203125 44.546875 -13 
Q 38.203125 -18.796875 25.09375 -18.796875 
Q 20.296875 -18.796875 15.75 -18 
Q 11.203125 -17.203125 7.5 -15.90625 
L 9.703125 -5.59375 
Q 12.796875 -6.90625 16.75 -7.703125 
Q 20.703125 -8.5 25.296875 -8.5 
Q 32.59375 -8.5 35.6875 -5.5 
Q 38.796875 -2.5 38.796875 3.40625 
L 38.796875 5.40625 
Q 37 4.5 34.046875 3.59375 
Q 31.09375 2.703125 27.296875 2.703125 
Q 22.296875 2.703125 18.140625 4.296875 
Q 14 5.90625 11.046875 9 
Q 8.09375 12.09375 6.4375 16.75 
Q 4.796875 21.40625 4.796875 27.5 
Q 4.796875 33.203125 6.546875 38 
Q 8.296875 42.796875 11.640625 46.1875 
Q 15 49.59375 19.796875 51.5 
Q 24.59375 53.40625 30.703125 53.40625 
Q 36.59375 53.40625 41.890625 52.5 
Q 47.203125 51.59375 50.90625 50.59375 
z
" id="Ubuntu-Medium-103"/>
     <path d="M 23.59375 -1.5 
Q 20.90625 -1.5 18.046875 -1.140625 
Q 15.203125 -0.796875 12.640625 -0.25 
Q 10.09375 0.296875 8 0.9375 
Q 5.90625 1.59375 4.796875 2.203125 
L 7.203125 12.5 
Q 9.296875 11.5 13.296875 10.25 
Q 17.296875 9 23.203125 9 
Q 31.09375 9 34.59375 12.046875 
Q 38.09375 15.09375 38.09375 20.203125 
Q 38.09375 23.5 36.75 25.703125 
Q 35.40625 27.90625 33.046875 29.25 
Q 30.703125 30.59375 27.640625 31.140625 
Q 24.59375 31.703125 21.203125 31.703125 
L 17.09375 31.703125 
L 17.09375 41.5 
L 22.09375 41.5 
Q 24.40625 41.5 26.75 41.953125 
Q 29.09375 42.40625 31 43.546875 
Q 32.90625 44.703125 34.09375 46.59375 
Q 35.296875 48.5 35.296875 51.5 
Q 35.296875 53.90625 34.390625 55.59375 
Q 33.5 57.296875 32.046875 58.390625 
Q 30.59375 59.5 28.6875 60 
Q 26.796875 60.5 24.703125 60.5 
Q 20.203125 60.5 16.703125 59.140625 
Q 13.203125 57.796875 10.5 56.09375 
L 6.09375 65.09375 
Q 7.5 66 9.5 67 
Q 11.5 68 13.953125 68.890625 
Q 16.40625 69.796875 19.203125 70.34375 
Q 22 70.90625 25.09375 70.90625 
Q 30.90625 70.90625 35.09375 69.5 
Q 39.296875 68.09375 42.046875 65.546875 
Q 44.796875 63 46.140625 59.546875 
Q 47.5 56.09375 47.5 52 
Q 47.5 47.203125 44.84375 43.390625 
Q 42.203125 39.59375 38 37.59375 
Q 43.40625 35.703125 46.953125 31.296875 
Q 50.5 26.90625 50.5 20 
Q 50.5 15.40625 48.890625 11.453125 
Q 47.296875 7.5 44 4.640625 
Q 40.703125 1.796875 35.640625 0.140625 
Q 30.59375 -1.5 23.59375 -1.5 
z
" id="Ubuntu-Medium-51"/>
     <path d="M 17.203125 26.296875 
Q 17.203125 18.296875 21 13.75 
Q 24.796875 9.203125 31.5 9.203125 
Q 34.40625 9.203125 36.453125 9.453125 
Q 38.5 9.703125 39.796875 10 
L 39.796875 40 
Q 38.203125 41.09375 35.546875 42.046875 
Q 32.90625 43 29.90625 43 
Q 23.296875 43 20.25 38.5 
Q 17.203125 34 17.203125 26.296875 
z
M 51.90625 1.59375 
Q 48.296875 0.5 42.84375 -0.390625 
Q 37.40625 -1.296875 31.40625 -1.296875 
Q 25.203125 -1.296875 20.296875 0.59375 
Q 15.40625 2.5 11.953125 6.046875 
Q 8.5 9.59375 6.640625 14.640625 
Q 4.796875 19.703125 4.796875 26 
Q 4.796875 32.203125 6.34375 37.25 
Q 7.90625 42.296875 10.90625 45.890625 
Q 13.90625 49.5 18.203125 51.453125 
Q 22.5 53.40625 28.09375 53.40625 
Q 31.90625 53.40625 34.796875 52.5 
Q 37.703125 51.59375 39.796875 50.5 
L 39.796875 75.59375 
L 51.90625 77.59375 
z
" id="Ubuntu-Medium-100"/>
    </defs>
    <g style="fill:#348abd;" transform="translate(39.026207 127.845)scale(0.9 -0.9)">
     <use xlink:href="#Ubuntu-Medium-101"/>
     <use x="57.099991" xlink:href="#Ubuntu-Medium-109"/>
     <use x="143.599976" xlink:href="#Ubuntu-Medium-103"/>
     <use x="202.199966" xlink:href="#Ubuntu-Medium-51"/>
     <use x="258.999954" xlink:href="#Ubuntu-Medium-100"/>
    </g>
   </g>
  </g>
 </g>
 <defs>
  <clipPath id="p757e7e21e5">
   <rect height="163.08" width="279" x="45" y="25.92"/>
  </clipPath>
 </defs>
</svg>
