<?xml version="1.0" encoding="utf-8" standalone="no"?>
<!DOCTYPE svg PUBLIC "-//W3C//DTD SVG 1.1//EN"
  "http://www.w3.org/Graphics/SVG/1.1/DTD/svg11.dtd">
<!-- Created with matplotlib (https://matplotlib.org/) -->
<svg height="180pt" version="1.1" viewBox="0 0 360 180" width="360pt" xmlns="http://www.w3.org/2000/svg" xmlns:xlink="http://www.w3.org/1999/xlink">
 <defs>
  <style type="text/css">
*{stroke-linecap:butt;stroke-linejoin:round;}
  </style>
 </defs>
 <g id="figure_1">
  <g id="patch_1">
   <path d="M 0 180 
L 360 180 
L 360 0 
L 0 0 
z
" style="fill:none;"/>
  </g>
  <g id="axes_1">
   <g id="line2d_1">
    <path clip-path="url(#p2ba8cafe89)" d="M 57.681818 29.594118 
L 78.818182 69.564706 
L 99.954545 109.535294 
L 121.090909 149.505882 
L 142.227273 109.535294 
L 163.363636 149.505882 
L 184.5 109.535294 
L 205.636364 69.564706 
L 226.772727 109.535294 
L 247.909091 149.505882 
L 269.045455 109.535294 
L 290.181818 69.564706 
L 311.318182 29.594118 
" style="fill:none;stroke:#cccccc;stroke-linecap:round;stroke-width:10;"/>
   </g>
   <g id="line2d_2">
    <defs>
     <path d="M 0 17.5 
C 4.641054 17.5 9.092648 15.65609 12.374369 12.374369 
C 15.65609 9.092648 17.5 4.641054 17.5 0 
C 17.5 -4.641054 15.65609 -9.092648 12.374369 -12.374369 
C 9.092648 -15.65609 4.641054 -17.5 0 -17.5 
C -4.641054 -17.5 -9.092648 -15.65609 -12.374369 -12.374369 
C -15.65609 -9.092648 -17.5 -4.641054 -17.5 0 
C -17.5 4.641054 -15.65609 9.092648 -12.374369 12.374369 
C -9.092648 15.65609 -4.641054 17.5 0 17.5 
z
" id="m9afb959252" style="stroke:#e24a33;"/>
    </defs>
    <g clip-path="url(#p2ba8cafe89)">
     <use style="fill:#e24a33;stroke:#e24a33;" x="195.068182" xlink:href="#m9afb959252" y="77.558824"/>
    </g>
   </g>
   <g id="text_1">
    <path d="M 45.457031 80.224081 
Q 45.457031 74.022518 47.299219 69.339706 
Q 49.155469 64.656893 52.207031 61.563143 
Q 55.272656 58.455331 59.224219 56.880331 
Q 63.189844 55.305331 67.324219 55.305331 
Q 77.055469 55.305331 82.497656 61.338143 
Q 87.939844 67.356893 87.939844 79.324081 
Q 87.939844 80.224081 87.897656 81.349081 
Q 87.855469 82.474081 87.757031 83.374081 
L 56.707031 83.374081 
Q 57.157031 89.055331 60.714844 92.163143 
Q 64.272656 95.256893 71.022656 95.256893 
Q 74.974219 95.256893 78.264844 94.539706 
Q 81.555469 93.822518 83.439844 93.006893 
L 84.874219 101.922518 
Q 83.974219 102.372518 82.399219 102.864706 
Q 80.824219 103.356893 78.799219 103.764706 
Q 76.774219 104.172518 74.439844 104.439706 
Q 72.105469 104.706893 69.672656 104.706893 
Q 63.457031 104.706893 58.858594 102.864706 
Q 54.274219 101.022518 51.307031 97.745956 
Q 48.339844 94.455331 46.891406 89.997518 
Q 45.457031 85.539706 45.457031 80.224081 
z
M 77.055469 75.372518 
Q 77.055469 73.122518 76.422656 71.097518 
Q 75.789844 69.072518 74.566406 67.595956 
Q 73.357031 66.105331 71.599219 65.247518 
Q 69.855469 64.389706 67.422656 64.389706 
Q 64.905469 64.389706 63.007031 65.331893 
Q 61.122656 66.274081 59.814844 67.806893 
Q 58.507031 69.339706 57.789844 71.322518 
Q 57.072656 73.305331 56.805469 75.372518 
z
M 126.279836 78.789706 
Q 126.279836 71.406893 124.437648 68.130331 
Q 122.595461 64.839706 117.547023 64.839706 
Q 115.747023 64.839706 113.581398 65.106893 
Q 111.429836 65.374081 110.347023 65.556893 
L 110.347023 103.539706 
L 99.462648 103.539706 
L 99.462648 58.005331 
Q 102.612648 57.105331 107.689211 56.289706 
Q 112.779836 55.474081 118.447023 55.474081 
Q 123.312648 55.474081 126.406398 56.739706 
Q 129.514211 58.005331 131.595461 60.072518 
Q 132.579836 59.355331 134.112648 58.539706 
Q 135.645461 57.724081 137.529836 57.049081 
Q 139.414211 56.374081 141.523586 55.924081 
Q 143.647023 55.474081 145.812648 55.474081 
Q 151.297023 55.474081 154.854836 57.049081 
Q 158.412648 58.624081 160.437648 61.464706 
Q 162.462648 64.305331 163.222023 68.313143 
Q 163.995461 72.306893 163.995461 77.074081 
L 163.995461 103.539706 
L 153.097023 103.539706 
L 153.097023 78.789706 
Q 153.097023 71.406893 151.297023 68.130331 
Q 149.497023 64.839706 144.364211 64.839706 
Q 141.762648 64.839706 139.414211 65.697518 
Q 137.079836 66.555331 135.912648 67.356893 
Q 136.629836 69.606893 136.897023 72.138143 
Q 137.164211 74.655331 137.164211 77.524081 
L 137.164211 103.539706 
L 126.279836 103.539706 
z
M 185.862634 78.789706 
Q 185.862634 85.722518 188.872009 88.914706 
Q 191.895447 92.106893 196.662634 92.106893 
Q 199.264197 92.106893 201.556384 91.389706 
Q 203.862634 90.672518 205.297009 89.674081 
L 205.297009 65.289706 
Q 204.129822 65.022518 202.414197 64.797518 
Q 200.712634 64.572518 198.097009 64.572518 
Q 192.162634 64.572518 189.012634 68.495956 
Q 185.862634 72.405331 185.862634 78.789706 
z
M 216.195447 98.772518 
Q 216.195447 110.022518 210.472009 115.239706 
Q 204.762634 120.456893 192.964197 120.456893 
Q 188.647009 120.456893 184.554822 119.739706 
Q 180.462634 119.022518 177.129822 117.855331 
L 179.112634 108.574081 
Q 181.897009 109.755331 185.454822 110.472518 
Q 189.012634 111.189706 193.147009 111.189706 
Q 199.714197 111.189706 202.498572 108.489706 
Q 205.297009 105.789706 205.297009 100.474081 
L 205.297009 98.674081 
Q 203.679822 99.489706 201.022009 100.305331 
Q 198.364197 101.106893 194.947009 101.106893 
Q 190.447009 101.106893 186.706384 99.672518 
Q 182.979822 98.224081 180.322009 95.439706 
Q 177.664197 92.655331 176.173572 88.464706 
Q 174.697009 84.274081 174.697009 78.789706 
Q 174.697009 73.656893 176.272009 69.339706 
Q 177.847009 65.022518 180.856384 61.970956 
Q 183.879822 58.905331 188.197009 57.189706 
Q 192.514197 55.474081 198.012634 55.474081 
Q 203.314197 55.474081 208.081384 56.289706 
Q 212.862634 57.105331 216.195447 58.005331 
z
M 244.354189 104.889706 
Q 241.935439 104.889706 239.362001 104.566268 
Q 236.802626 104.256893 234.496376 103.764706 
Q 232.204189 103.272518 230.319814 102.695956 
Q 228.435439 102.105331 227.437001 101.556893 
L 229.602626 92.289706 
Q 231.487001 93.189706 235.087001 94.314706 
Q 238.687001 95.439706 244.002626 95.439706 
Q 251.104189 95.439706 254.254189 92.697518 
Q 257.404189 89.955331 257.404189 85.356893 
Q 257.404189 82.389706 256.194814 80.406893 
Q 254.985439 78.424081 252.862001 77.214706 
Q 250.752626 76.005331 247.996376 75.513143 
Q 245.254189 75.006893 242.202626 75.006893 
L 238.504189 75.006893 
L 238.504189 66.189706 
L 243.004189 66.189706 
Q 245.085439 66.189706 247.194814 65.781893 
Q 249.304189 65.374081 251.019814 64.347518 
Q 252.735439 63.306893 253.804189 61.605331 
Q 254.887001 59.889706 254.887001 57.189706 
Q 254.887001 55.024081 254.071376 53.505331 
Q 253.269814 51.972518 251.962001 50.988143 
Q 250.654189 49.989706 248.938564 49.539706 
Q 247.237001 49.089706 245.352626 49.089706 
Q 241.302626 49.089706 238.152626 50.313143 
Q 235.002626 51.522518 232.569814 53.055331 
L 228.604189 44.955331 
Q 229.869814 44.139706 231.669814 43.239706 
Q 233.469814 42.339706 235.677626 41.538143 
Q 237.885439 40.722518 240.402626 40.230331 
Q 242.919814 39.724081 245.704189 39.724081 
Q 250.935439 39.724081 254.704189 40.989706 
Q 258.487001 42.255331 260.962001 44.547518 
Q 263.437001 46.839706 264.646376 49.947518 
Q 265.869814 53.055331 265.869814 56.739706 
Q 265.869814 61.056893 263.479189 64.488143 
Q 261.102626 67.905331 257.319814 69.705331 
Q 262.185439 71.406893 265.377626 75.372518 
Q 268.569814 79.324081 268.569814 85.539706 
Q 268.569814 89.674081 267.121376 93.231893 
Q 265.687001 96.789706 262.719814 99.363143 
Q 259.752626 101.922518 255.196376 103.413143 
Q 250.654189 104.889706 244.354189 104.889706 
z
M 289.722615 79.872518 
Q 289.722615 87.072518 293.139803 91.164706 
Q 296.55699 95.256893 302.589803 95.256893 
Q 305.205428 95.256893 307.047615 95.031893 
Q 308.889803 94.806893 310.05699 94.539706 
L 310.05699 67.539706 
Q 308.622615 66.555331 306.23199 65.697518 
Q 303.855428 64.839706 301.155428 64.839706 
Q 295.20699 64.839706 292.464803 68.889706 
Q 289.722615 72.939706 289.722615 79.872518 
z
M 320.955428 102.105331 
Q 317.70699 103.089706 312.799178 103.891268 
Q 307.905428 104.706893 302.505428 104.706893 
Q 296.922615 104.706893 292.50699 103.005331 
Q 288.105428 101.289706 284.997615 98.097518 
Q 281.889803 94.905331 280.216365 90.363143 
Q 278.55699 85.806893 278.55699 80.139706 
Q 278.55699 74.556893 279.949178 70.014706 
Q 281.355428 65.472518 284.055428 62.238143 
Q 286.755428 58.989706 290.622615 57.231893 
Q 294.489803 55.474081 299.524178 55.474081 
Q 302.955428 55.474081 305.55699 56.289706 
Q 308.172615 57.105331 310.05699 58.089706 
L 310.05699 35.505331 
L 320.955428 33.705331 
z
" style="fill:#348abd;stroke:#ffffff;stroke-width:4;"/>
    <path d="M 45.457031 80.224081 
Q 45.457031 74.022518 47.299219 69.339706 
Q 49.155469 64.656893 52.207031 61.563143 
Q 55.272656 58.455331 59.224219 56.880331 
Q 63.189844 55.305331 67.324219 55.305331 
Q 77.055469 55.305331 82.497656 61.338143 
Q 87.939844 67.356893 87.939844 79.324081 
Q 87.939844 80.224081 87.897656 81.349081 
Q 87.855469 82.474081 87.757031 83.374081 
L 56.707031 83.374081 
Q 57.157031 89.055331 60.714844 92.163143 
Q 64.272656 95.256893 71.022656 95.256893 
Q 74.974219 95.256893 78.264844 94.539706 
Q 81.555469 93.822518 83.439844 93.006893 
L 84.874219 101.922518 
Q 83.974219 102.372518 82.399219 102.864706 
Q 80.824219 103.356893 78.799219 103.764706 
Q 76.774219 104.172518 74.439844 104.439706 
Q 72.105469 104.706893 69.672656 104.706893 
Q 63.457031 104.706893 58.858594 102.864706 
Q 54.274219 101.022518 51.307031 97.745956 
Q 48.339844 94.455331 46.891406 89.997518 
Q 45.457031 85.539706 45.457031 80.224081 
z
M 77.055469 75.372518 
Q 77.055469 73.122518 76.422656 71.097518 
Q 75.789844 69.072518 74.566406 67.595956 
Q 73.357031 66.105331 71.599219 65.247518 
Q 69.855469 64.389706 67.422656 64.389706 
Q 64.905469 64.389706 63.007031 65.331893 
Q 61.122656 66.274081 59.814844 67.806893 
Q 58.507031 69.339706 57.789844 71.322518 
Q 57.072656 73.305331 56.805469 75.372518 
z
M 126.279836 78.789706 
Q 126.279836 71.406893 124.437648 68.130331 
Q 122.595461 64.839706 117.547023 64.839706 
Q 115.747023 64.839706 113.581398 65.106893 
Q 111.429836 65.374081 110.347023 65.556893 
L 110.347023 103.539706 
L 99.462648 103.539706 
L 99.462648 58.005331 
Q 102.612648 57.105331 107.689211 56.289706 
Q 112.779836 55.474081 118.447023 55.474081 
Q 123.312648 55.474081 126.406398 56.739706 
Q 129.514211 58.005331 131.595461 60.072518 
Q 132.579836 59.355331 134.112648 58.539706 
Q 135.645461 57.724081 137.529836 57.049081 
Q 139.414211 56.374081 141.523586 55.924081 
Q 143.647023 55.474081 145.812648 55.474081 
Q 151.297023 55.474081 154.854836 57.049081 
Q 158.412648 58.624081 160.437648 61.464706 
Q 162.462648 64.305331 163.222023 68.313143 
Q 163.995461 72.306893 163.995461 77.074081 
L 163.995461 103.539706 
L 153.097023 103.539706 
L 153.097023 78.789706 
Q 153.097023 71.406893 151.297023 68.130331 
Q 149.497023 64.839706 144.364211 64.839706 
Q 141.762648 64.839706 139.414211 65.697518 
Q 137.079836 66.555331 135.912648 67.356893 
Q 136.629836 69.606893 136.897023 72.138143 
Q 137.164211 74.655331 137.164211 77.524081 
L 137.164211 103.539706 
L 126.279836 103.539706 
z
M 185.862634 78.789706 
Q 185.862634 85.722518 188.872009 88.914706 
Q 191.895447 92.106893 196.662634 92.106893 
Q 199.264197 92.106893 201.556384 91.389706 
Q 203.862634 90.672518 205.297009 89.674081 
L 205.297009 65.289706 
Q 204.129822 65.022518 202.414197 64.797518 
Q 200.712634 64.572518 198.097009 64.572518 
Q 192.162634 64.572518 189.012634 68.495956 
Q 185.862634 72.405331 185.862634 78.789706 
z
M 216.195447 98.772518 
Q 216.195447 110.022518 210.472009 115.239706 
Q 204.762634 120.456893 192.964197 120.456893 
Q 188.647009 120.456893 184.554822 119.739706 
Q 180.462634 119.022518 177.129822 117.855331 
L 179.112634 108.574081 
Q 181.897009 109.755331 185.454822 110.472518 
Q 189.012634 111.189706 193.147009 111.189706 
Q 199.714197 111.189706 202.498572 108.489706 
Q 205.297009 105.789706 205.297009 100.474081 
L 205.297009 98.674081 
Q 203.679822 99.489706 201.022009 100.305331 
Q 198.364197 101.106893 194.947009 101.106893 
Q 190.447009 101.106893 186.706384 99.672518 
Q 182.979822 98.224081 180.322009 95.439706 
Q 177.664197 92.655331 176.173572 88.464706 
Q 174.697009 84.274081 174.697009 78.789706 
Q 174.697009 73.656893 176.272009 69.339706 
Q 177.847009 65.022518 180.856384 61.970956 
Q 183.879822 58.905331 188.197009 57.189706 
Q 192.514197 55.474081 198.012634 55.474081 
Q 203.314197 55.474081 208.081384 56.289706 
Q 212.862634 57.105331 216.195447 58.005331 
z
M 244.354189 104.889706 
Q 241.935439 104.889706 239.362001 104.566268 
Q 236.802626 104.256893 234.496376 103.764706 
Q 232.204189 103.272518 230.319814 102.695956 
Q 228.435439 102.105331 227.437001 101.556893 
L 229.602626 92.289706 
Q 231.487001 93.189706 235.087001 94.314706 
Q 238.687001 95.439706 244.002626 95.439706 
Q 251.104189 95.439706 254.254189 92.697518 
Q 257.404189 89.955331 257.404189 85.356893 
Q 257.404189 82.389706 256.194814 80.406893 
Q 254.985439 78.424081 252.862001 77.214706 
Q 250.752626 76.005331 247.996376 75.513143 
Q 245.254189 75.006893 242.202626 75.006893 
L 238.504189 75.006893 
L 238.504189 66.189706 
L 243.004189 66.189706 
Q 245.085439 66.189706 247.194814 65.781893 
Q 249.304189 65.374081 251.019814 64.347518 
Q 252.735439 63.306893 253.804189 61.605331 
Q 254.887001 59.889706 254.887001 57.189706 
Q 254.887001 55.024081 254.071376 53.505331 
Q 253.269814 51.972518 251.962001 50.988143 
Q 250.654189 49.989706 248.938564 49.539706 
Q 247.237001 49.089706 245.352626 49.089706 
Q 241.302626 49.089706 238.152626 50.313143 
Q 235.002626 51.522518 232.569814 53.055331 
L 228.604189 44.955331 
Q 229.869814 44.139706 231.669814 43.239706 
Q 233.469814 42.339706 235.677626 41.538143 
Q 237.885439 40.722518 240.402626 40.230331 
Q 242.919814 39.724081 245.704189 39.724081 
Q 250.935439 39.724081 254.704189 40.989706 
Q 258.487001 42.255331 260.962001 44.547518 
Q 263.437001 46.839706 264.646376 49.947518 
Q 265.869814 53.055331 265.869814 56.739706 
Q 265.869814 61.056893 263.479189 64.488143 
Q 261.102626 67.905331 257.319814 69.705331 
Q 262.185439 71.406893 265.377626 75.372518 
Q 268.569814 79.324081 268.569814 85.539706 
Q 268.569814 89.674081 267.121376 93.231893 
Q 265.687001 96.789706 262.719814 99.363143 
Q 259.752626 101.922518 255.196376 103.413143 
Q 250.654189 104.889706 244.354189 104.889706 
z
M 289.722615 79.872518 
Q 289.722615 87.072518 293.139803 91.164706 
Q 296.55699 95.256893 302.589803 95.256893 
Q 305.205428 95.256893 307.047615 95.031893 
Q 308.889803 94.806893 310.05699 94.539706 
L 310.05699 67.539706 
Q 308.622615 66.555331 306.23199 65.697518 
Q 303.855428 64.839706 301.155428 64.839706 
Q 295.20699 64.839706 292.464803 68.889706 
Q 289.722615 72.939706 289.722615 79.872518 
z
M 320.955428 102.105331 
Q 317.70699 103.089706 312.799178 103.891268 
Q 307.905428 104.706893 302.505428 104.706893 
Q 296.922615 104.706893 292.50699 103.005331 
Q 288.105428 101.289706 284.997615 98.097518 
Q 281.889803 94.905331 280.216365 90.363143 
Q 278.55699 85.806893 278.55699 80.139706 
Q 278.55699 74.556893 279.949178 70.014706 
Q 281.355428 65.472518 284.055428 62.238143 
Q 286.755428 58.989706 290.622615 57.231893 
Q 294.489803 55.474081 299.524178 55.474081 
Q 302.955428 55.474081 305.55699 56.289706 
Q 308.172615 57.105331 310.05699 58.089706 
L 310.05699 35.505331 
L 320.955428 33.705331 
z
" style="fill:#348abd;"/>
   </g>
  </g>
 </g>
 <defs>
  <clipPath id="p2ba8cafe89">
   <rect height="135.9" width="279" x="45" y="21.6"/>
  </clipPath>
 </defs>
</svg>
